<svg width="1110" height="484" viewBox="0 0 1110 484" fill="none" xmlns="http://www.w3.org/2000/svg">
<g filter="url(#filter0_n_2370_588)">
<g clip-path="url(#clip0_2370_588)">
<path d="M542.107 180.416C544.011 188.108 541.662 194.046 533.603 197.892C530.082 199.572 527.588 203.554 524.597 206.455C521.401 209.559 516.594 212.105 515.444 215.866C514.509 218.933 517.809 223.487 519.454 227.277C520.903 230.615 519.145 232.535 517.07 234.535C511.523 239.887 508.868 245.201 513.468 253.362C517.816 261.078 511.692 267.512 508.003 273.79C507.758 274.208 504.739 273.655 503.87 272.706C502.702 271.432 502.137 269.384 501.732 267.57C501.014 264.35 499.881 264.55 497.18 265.777C490.601 268.764 483.791 271.235 476.988 273.65C471.504 275.596 469.964 274.588 468.485 268.634C468.15 267.286 468.763 265.405 468.063 264.487C466.238 262.095 463.485 257.951 461.884 258.304C452.75 260.328 446.283 254.266 438.992 251.074C435.993 249.76 434.223 249.417 431.927 251.813C427.487 256.447 422.509 258.713 416.242 255.341C415.277 254.822 413.589 255.463 412.328 255.871C405.356 258.122 405.052 258.241 403.234 251.191C402.394 247.925 401.6 246.168 398.046 246.597C394.899 246.978 391.116 245.804 388.629 247.228C380.987 251.602 375.969 243.422 369.326 243.626C368.687 243.644 367.556 241.674 367.391 240.514C366.22 232.209 365.225 223.873 364.219 215.543C364.107 214.62 364.603 213.511 364.268 212.744C362.63 208.988 370.291 204.629 364.153 201.881C361.347 200.623 357.253 202.592 353.727 202.838C352.798 202.903 351.103 202.18 350.948 201.52C348.653 191.76 343.29 182.689 345.153 171.936C345.571 169.523 344.465 166.325 343.081 164.164C337.686 155.726 338.58 147.164 342.567 138.848C345.347 133.05 348.741 127.392 352.77 122.47C355.846 118.713 358.657 119.719 361.299 124.063C363.702 128.012 366.032 132.012 368.595 135.847C374.197 144.232 380.141 151.125 391.49 144.764C394.344 143.164 398.678 143.993 402.278 144.331C409.174 144.982 414.365 142.318 419.22 137.335C427.794 128.538 432.085 127.142 441.828 134.003C450.945 140.427 459.04 135.312 467.516 134.69C469.595 134.538 472.228 131.5 473.264 129.15C476.355 122.151 483.834 117.416 482.544 107.894C482.193 105.3 486.278 101.797 488.74 99.1176C492.957 94.5277 496.148 89.6866 495.706 82.9367C495.589 81.1527 496.185 79.2491 496.735 77.4959C501.217 63.2306 503.356 59.9873 519.273 63.545C521.244 63.9859 523.562 64.109 525.427 63.4681C532.829 60.9288 539.666 62.5403 546.415 65.7665C552.201 68.5314 552.929 72.8222 548.965 80.2351C548.344 81.3937 548.512 83.0666 547.781 84.0936C543.626 89.9463 543.486 94.15 549.414 99.8421C553.599 103.86 554.711 111.339 557.016 117.347C557.079 117.51 555.145 118.83 554.035 119.073C551.88 119.54 550.603 120.454 552.171 122.602C554.841 126.262 557.428 130.116 560.691 133.145C564.658 136.829 569.483 139.509 573.563 143.084C575.985 145.208 575.951 148.438 572.892 150.015C570.154 151.43 566.94 152.276 563.881 152.486C560.542 152.715 557.138 151.925 553.764 151.578C554.087 156.968 548.67 152.583 547.626 155.425C545.709 160.635 543.652 165.823 542.227 171.185C541.527 173.819 542.107 176.818 542.107 180.416Z" fill="url(#paint0_linear_2370_588)"/>
<path d="M288.061 237.205C285.3 240.643 293.388 246.141 286.943 247.735C284.167 248.422 280.336 243.921 276.815 242.134C272.237 239.81 270.771 240.435 273.417 245.903C274.111 247.335 272.737 250.729 271.326 252.212C266.769 257.002 271.688 262.884 269.01 268.048C266.71 272.486 266.649 277.323 267.927 282.887C270.166 292.631 265.723 302.152 263.811 311.722C263.236 314.599 261.647 314.143 259.961 312.951C256.061 310.192 252.454 308.885 248.983 313.841C248.596 314.393 245.827 313.28 244.223 312.749C241.871 311.971 239.572 311.025 237.249 310.15C237.761 312.315 238.38 314.459 238.724 316.654C238.851 317.463 238.327 318.381 238.1 319.251C237.018 318.841 235.592 318.752 234.915 317.968C231.605 314.13 227.565 310.556 225.524 306.043C222.221 298.731 216.722 294.377 210.544 290.326C204.07 286.081 197.295 282.159 191.467 277.087C187.466 273.608 184.711 268.509 181.689 263.928C180.207 261.681 180.031 257.701 178.158 256.672C167.661 250.908 163.406 239.051 154.642 231.664C151.207 228.767 147.515 225.551 150.413 219.736C151.004 218.55 149.792 216.257 149.162 214.577C143.225 198.771 134.781 184.403 125.527 170.508C125.015 169.741 124.425 168.846 123.661 168.466C113.337 163.352 111.147 153.391 109.337 143.092C108.775 139.897 107.751 136.757 106.662 133.699C104.058 126.382 99.9313 120.642 92.4017 117.841C87.298 115.944 84.3007 112.822 82.2092 106.371C79.3106 97.4273 72.4151 89.8709 67.1599 81.7711C66.6889 81.0448 65.7321 80.3134 64.9301 80.216C51.144 78.5226 45.5034 65.756 36.6959 57.4648C33.631 54.5803 32.5128 49.3599 30.7934 45.081C29.4693 41.7915 26.2876 37.5793 29.9914 34.9989C32.4749 33.2696 36.905 34.3616 40.4458 34.5529C41.6826 34.6179 42.8684 35.7594 44.0739 36.4121C53.5633 41.5506 63.6652 43.6832 74.2827 42.4819C84.2464 41.3558 90.7104 45.6381 94.5163 55.0998C96.5618 60.1835 102.494 62.8835 102.645 69.3889C102.675 70.6962 104.953 72.0957 106.38 73.1911C115.094 79.876 123.879 86.4601 132.594 93.1415C134.043 94.254 136.092 95.4792 136.444 97.0069C137.596 101.968 140.229 104.527 144.926 106.135C147.006 106.846 148.177 110.402 149.768 112.661C151.439 115.033 153.076 117.256 156.275 114.678C159.744 111.88 163.012 112.617 165.996 115.686C166.642 116.349 167.258 117.13 168.04 117.555C175.607 121.67 177.857 123.615 181.157 129.599C182.422 131.894 183.586 133.249 186.408 131.704C191.467 128.934 194.293 131.484 194.935 136.652C195.637 142.306 197.013 145.604 203.581 143.21C207.143 141.911 210.065 148.8 215.001 144.755C216.397 143.612 220.603 150.585 218.757 151.722C213.736 154.815 215.673 156.79 218.64 159.514C220.663 161.371 222.527 163.436 224.274 165.572C224.759 166.166 224.925 168.005 224.65 168.164C220.044 170.785 222.911 176.373 220.302 179.674C218.866 181.491 216.574 182.849 215.804 184.88C215.17 186.549 215.498 189.685 216.644 190.811C220.378 194.481 225.17 195.411 230.378 195.662C237.333 195.999 239.271 197.214 238.177 204C236.453 214.712 247.383 216.913 249.244 224.861C249.473 225.842 252.38 226.735 254.009 226.667C258.66 226.469 261.807 227.991 263.572 232.752C263.996 233.889 266.237 234.297 267.64 235.04C268.007 233.294 268.972 231.411 268.638 229.823C267.284 223.42 265.262 221.987 258.291 221.537C256.049 221.394 253.795 221.262 251.585 220.89C251.183 220.821 250.529 219.198 250.72 218.981C253.931 215.332 256.94 211.358 260.69 208.41C262.576 206.93 265.847 207.277 268.506 206.946C273.599 206.308 276.721 209.158 276.672 214.017C276.586 222.721 279.676 228.441 287.933 230.96C289.03 231.295 290.471 232.923 290.466 233.948C290.463 235.037 288.928 236.12 288.061 237.205Z" fill="url(#paint1_linear_2370_588)"/>
<path d="M1088.01 403.726C1079.75 395.212 1072.56 388.066 1065.7 380.593C1062.91 377.558 1060.07 376.379 1056.07 376.866C1052.27 377.329 1048.54 380.407 1044.42 377.217C1043.66 376.634 1040.72 377.75 1039.81 378.931C1031.29 389.994 1019.56 383.707 1009.3 385.142C1009.04 385.178 1007.91 382.945 1008.22 382.374C1011.97 375.465 1015.6 368.433 1019.99 361.967C1021.6 359.611 1024.98 358.18 1027.83 357.188C1033.84 355.096 1032.77 355.421 1032.24 348.396C1031.21 334.626 1023.16 324.477 1017.06 313.413C1012.45 305.055 1004.76 299.969 995.53 297.374C990.372 295.925 985.336 293.659 980.588 291.082C973.299 287.123 965.87 283.719 957.56 283.662C950.272 283.611 944.371 281.046 939.478 275.516C938.37 274.262 936.275 272.36 935.389 272.724C926.041 276.579 921.137 269.833 916.032 264.108C912.753 260.431 911.215 261.224 909.833 265.422C909.398 266.74 908.753 268.033 907.982 269.175C905.544 272.789 902.392 275.344 897.886 274.732C894.642 274.293 891.739 268.165 892.152 263.262C892.997 253.201 890.4 249.334 880.235 246.741C877.183 245.964 874.333 244.679 875.51 241.622C876.434 239.223 880.84 235.761 881.936 236.343C889.375 240.292 895.044 237.42 900.444 232.538C903.418 229.851 906.21 231.803 909.146 232.324C910.918 232.639 912.796 232.666 914.583 232.442C915.76 232.293 916.86 231.471 917.995 230.95C916.761 229.648 915.628 227.377 914.273 227.223C910.24 226.764 906.111 227.013 902.033 227.257C900.747 227.334 899.538 228.659 898.244 228.758C883.815 229.869 879.013 232.478 872.47 215.836C870.945 211.962 868.526 209.284 864.311 209.877C854.585 211.242 847.513 207.878 843.342 198.389C842.843 197.252 841.281 196.659 840.351 195.673C839.649 194.927 838.501 193.539 838.72 193.156C839.369 192.023 840.483 190.704 841.624 190.448C843.796 189.957 846.482 189.325 848.31 190.202C858.84 195.253 868.185 190.385 875.788 184.681C885.96 177.049 894.43 177.367 904.294 184.183C908.298 186.95 913.306 188.421 918.051 189.703C928.453 192.51 931.435 197.1 929.597 207.644C928.489 214.011 927.675 220.487 927.413 226.943C927.188 232.58 929.228 233.686 933.782 230.378C936.522 228.385 938.767 226.625 938.077 231.736C937.176 238.411 940.697 242.733 943.536 247.835C947.996 255.849 951.455 257.772 957.91 252.068C964.343 246.384 970.272 239.568 974.69 232.14C977.258 227.828 979.868 226.728 983.906 225.653C989.364 224.199 994.563 223.112 997.543 216.019C1000.86 208.131 1008.4 206.839 1017.09 209.37C1025.4 211.793 1033.22 215.017 1040.51 220.01C1049.21 225.974 1058.68 230.118 1069.35 231.036C1073.3 231.376 1077.16 233.097 1081 234.371C1084.39 235.496 1085.89 237.847 1085.82 241.777C1085.63 252.635 1085.53 263.51 1085.9 274.358C1086.24 284.201 1087.38 294.009 1087.93 303.847C1088.22 309.025 1088.77 314.382 1087.86 319.399C1084.65 337.225 1085.66 354.872 1087.8 372.719C1088.95 382.336 1088.01 392.225 1088.01 403.726Z" fill="url(#paint2_linear_2370_588)"/>
<path d="M685.096 165.931C678.823 164.509 673.615 163.274 668.383 162.176C666.611 161.806 664.776 161.642 662.966 161.623C645.677 161.454 628.388 161.356 611.099 161.185C606.284 161.138 603.702 163.682 602.279 168.301C599.011 178.906 598.549 188.644 609.021 195.519C612.597 197.867 612.149 205.895 618.331 203.836C621.85 202.664 624.4 198.581 627.626 196.155C629.719 194.581 632.825 192.018 634.489 192.658C645.004 196.701 652.97 188.597 662.237 187.079C664.398 186.727 666.328 184.981 668.492 184.521C675.847 182.963 680.138 187.288 677.803 194.83C676.631 198.614 676.422 199.972 679.64 202.595C681.469 204.087 681.421 208.549 681.515 211.696C681.598 214.352 679.98 215.951 677.059 214.861C673.839 213.658 670.651 211.754 667.367 211.539C664.962 211.384 662.84 212.144 662.347 208.973C661.84 205.697 661.328 202.267 665.848 201.252C667.579 200.862 669.287 200.143 670.85 199.27C671.51 198.901 671.769 197.754 672.21 196.96C671.402 196.582 670.481 195.731 669.803 195.903C666.878 196.647 662.49 196.789 661.408 198.776C656.404 207.956 648.317 212.609 639.902 217.371C634.503 220.425 634.844 221.809 638.734 226.418C643.487 232.054 648.291 237.708 652.37 243.858C653.958 246.252 653.604 250.02 654.177 253.154C654.913 257.182 655.193 261.396 656.567 265.179C658.978 271.823 659.263 271.712 666.855 269.899C671.805 268.718 674.705 271.103 672.563 275.642C670.616 279.764 671.611 282.471 672.648 286.131C673.317 288.482 672.826 293.093 671.468 293.793C667.652 295.763 667.991 297.119 670.656 299.537C674.722 303.228 672.927 306.039 669.258 308.385C667.759 309.343 666.003 309.87 664.501 310.822C661.558 312.684 658.765 314.812 655.766 316.567C655.248 316.869 648.56 302.881 648.63 301.503C648.937 295.639 650.816 290.659 655.338 286.729C657.225 285.088 656.216 283.51 653.805 283.356C649.253 283.069 645.574 283.826 645.849 289.986C646.066 294.834 642.619 295.28 639.332 294.748C631.679 293.508 627.163 287.288 630.165 279.345C632.436 273.34 630.205 272.054 626.259 270.196C624.223 269.236 622.106 268.357 620.266 267.072C616.516 264.458 614.742 260.905 616.381 256.143C617.134 253.955 618.492 251.777 618.514 249.583C618.553 245.956 617.731 242.322 617.27 238.691C614.413 239.719 611.343 240.358 608.748 241.871C605.248 243.911 603.334 247.281 605.652 251.361C608.697 256.725 609.061 263.012 606.702 267.657C603.254 274.454 608.097 280.545 606.154 286.828C604.146 293.323 604.369 299.631 607.305 306.001C608.384 308.34 608.115 311.505 603.908 311.902C599.958 312.276 596.07 313.414 592.17 314.285C583.837 316.151 579.005 311.42 580.288 302.445C581.609 293.219 583.277 284.043 584.379 274.791C584.744 271.712 583.651 268.475 583.542 265.3C583.32 258.887 581.368 256.722 575.242 260.331C572.014 262.233 568.32 260.21 567.676 256.652C566.368 249.408 564.168 241.344 570.664 235.524C578.27 228.706 578.76 219.398 580.418 210.328C581.248 205.796 581.039 199.895 583.713 197.108C591.78 188.702 591.818 178.034 594.265 167.766C595.942 160.722 600.019 154.256 603.353 147.713C603.794 146.848 606.9 146.261 607.557 146.896C610.714 149.95 611.786 149.888 613.926 145.386C618.79 135.146 619.915 135.126 629.538 138.802C648.917 146.204 669.022 148.125 689.518 147.525C695.682 147.344 698.816 142.433 702.996 139.324C706.48 136.734 708.753 132.455 711.963 129.372C714.609 126.831 717.557 126.795 720.24 130.015C722.534 132.769 721.846 134.654 719.792 137.258C713.807 144.851 709.01 153.72 702.068 160.129C697.884 163.993 690.572 164.21 685.096 165.931Z" fill="url(#paint3_linear_2370_588)"/>
<path d="M445.407 360.116C449.047 360.116 452.862 359.406 456.273 360.321C459.504 361.19 464.317 363.226 464.926 365.684C466.812 373.314 471.835 372.21 476.619 371.516C482.862 370.609 488.378 371.736 492.954 376.184C493.814 377.023 494.14 379.811 493.473 380.759C488.923 387.227 482.124 388.596 474.829 384.922C472.806 383.903 470.828 382.746 468.722 381.976C467.882 381.666 466.746 382.23 465.744 382.396C465.97 383.278 466.196 384.158 466.42 385.04C466.841 386.695 467.261 388.351 467.681 390.009C466.082 389.828 464.397 389.923 462.9 389.421C448.842 384.701 434.982 380.374 419.837 379.233C409.398 378.445 398.747 381.849 388.328 377.382C378.82 373.308 368.68 370.853 358.927 367.358C351.136 364.566 334.165 362.907 322.622 364.72C317.25 365.564 311.039 363.778 305.794 361.641C297.807 358.385 290.21 355.282 281.259 356.615C276.097 357.382 275.35 355.192 276.102 347.645C276.239 346.282 275.267 343.684 274.446 343.512C268.798 342.322 263.491 338.522 257.341 340.764C256.093 341.219 254.508 342.28 253.621 341.853C252.132 341.135 250.755 339.617 249.986 338.081C249.655 337.422 250.801 335.016 251.544 334.87C258.675 333.479 261.28 327.027 265.31 322.14C269.963 316.495 274.582 312.249 282.647 317.184C286.005 319.24 290.84 321.654 295.506 318.025C296.56 317.205 299.859 317.485 300.504 318.438C304.322 324.077 310.125 322.599 315.283 323.855C320.861 325.215 326.835 326.388 330.403 332.222C333.088 336.608 337.319 337.357 342.197 337.563C348.891 337.847 355.518 339.537 362.213 340.263C367.832 340.87 372.427 340.062 375.808 333.742C379.281 327.256 380.235 327.97 388.03 331.268C391.666 332.809 395.716 333.688 399.642 333.997C403.823 334.323 407.506 334.771 410.923 337.866C412.713 339.489 415.839 339.918 418.421 340.142C431.023 341.232 443.647 342.041 456.253 343.064C457.274 343.148 458.228 344.115 459.211 344.67C458.622 345.362 458.159 346.299 457.423 346.712C449.061 351.424 440.71 356.201 430.569 353.295C429.781 353.069 428.688 354.001 427.736 354.394C428.362 355.537 428.8 357.478 429.645 357.693C434.791 359.009 440.032 359.932 445.241 360.984C445.297 360.696 445.351 360.405 445.407 360.116Z" fill="url(#paint4_linear_2370_588)"/>
<path d="M785.022 115.984C785.568 120.243 783.069 124.082 785.077 128.922C788.064 136.123 782.236 140.988 778.176 146.029C777.6 146.745 778.189 148.472 778.239 149.732C779.018 149.358 780.08 149.202 780.523 148.575C783.114 144.899 785.269 140.851 788.147 137.452C790.375 134.819 793.206 132.415 796.241 130.983C797.639 130.321 800.786 131.673 801.995 133.132C803.069 134.433 802.914 137.194 802.646 139.216C802.412 140.991 801.651 143.054 800.442 144.252C797.86 146.811 794.838 148.895 791.995 151.172C794.709 152.876 797.926 154.101 799.974 156.43C801.646 158.331 801.975 161.536 802.777 164.2C802.98 164.875 802.72 165.701 802.674 166.456C801.827 166.386 800.768 166.634 800.17 166.196C796.012 163.153 791.74 160.342 786.391 161.753C785.087 162.097 783.382 163.801 783.17 165.108C782.088 171.75 782.514 178.255 786.783 183.833C788.478 186.044 790.503 187.997 792.055 190.303C792.682 191.237 792.445 192.799 792.601 194.076C791.017 194.026 789.397 194.166 787.865 193.847C787.089 193.686 786.483 192.683 785.782 192.085C783.991 190.562 783.987 190.568 778.463 192.288C773.801 193.741 764.754 189.821 762.783 185.086C761.786 182.688 760.565 179.293 761.47 177.386C762.982 174.2 765.91 176.328 768.488 177.268C772.714 178.809 775.424 176.9 775.635 172.565C775.721 170.807 775.159 168.985 774.743 167.232C772.941 159.675 771.068 152.138 769.255 144.585C767.304 136.473 771.793 130.009 774.835 123.392C776.716 119.305 779.701 115.115 785.436 116.47L785.022 115.984Z" fill="url(#paint5_linear_2370_588)"/>
<path d="M698.891 386.315C693.912 385.38 690.007 384.43 686.053 383.997C684.051 383.777 681.961 384.657 679.899 384.753C664.234 385.486 649.754 393.005 634.249 393.803C621.63 394.452 608.9 392.485 596.245 392.796C591.912 392.902 588.383 392.781 585.177 389.932C583.327 388.288 579.497 387.861 580.979 384.085C581.186 383.557 584.989 385.13 586.777 384.555C589.671 383.623 592.634 382.157 594.931 380.139C601.543 374.32 607.854 372.721 615.682 378.271C622.404 383.039 630.319 382.612 638.445 383.107C649.114 383.758 658.229 382.777 667.335 377.049C670.584 375.007 675.11 374.72 679.1 374.474C687.703 373.948 696.341 373.698 704.955 373.89C708.385 373.965 712.03 374.987 715.119 376.549C717.407 377.706 717.537 381.282 715.043 382.179C709.602 384.139 703.831 385.11 698.891 386.315Z" fill="url(#paint6_linear_2370_588)"/>
<path d="M566.978 393.711C563.564 393.711 561.516 394.314 560.948 393.617C555.535 386.975 550.492 391.956 545.802 394.299C535.957 399.215 526.675 401.536 517.624 392.544C516.715 391.641 513.752 392.952 511.744 393.258C507.036 393.976 502.413 397.59 497.594 393.916C496.682 393.222 496.311 391.761 495.692 390.654C502.68 389.07 499.399 381.069 503.299 377.549C507.68 373.596 513.452 372.993 516.326 377.908C519.559 383.432 522.128 382.498 527.111 381.166C533.121 379.562 535.988 371.512 543.557 373.666C549.567 375.375 555.858 375.984 561.933 377.475C565.377 378.321 568.926 379.487 571.882 381.411C573.853 382.696 576.325 385.925 575.935 387.645C575.434 389.861 572.49 391.766 570.23 393.169C568.815 394.044 566.726 393.745 566.978 393.711Z" fill="url(#paint7_linear_2370_588)"/>
<path d="M799.352 240.905C802.751 243.029 806.686 236.513 809.965 241.095C813.881 246.565 816.985 239.148 820.895 240.801C831.295 245.203 843.762 246.009 848.769 259.177C849.263 260.474 850.32 261.797 850.214 263.022C850.063 264.758 849.35 266.645 848.312 268.003C847.864 268.59 845.837 268.393 844.814 267.903C840.33 265.755 835.997 263.267 831.522 261.093C826.173 258.496 821.501 253.4 814.431 257.768C812.641 258.873 808.3 256.891 805.859 255.199C801.974 252.504 801.139 254.552 801.291 257.776C801.485 261.93 800.357 263.501 796.052 263.586C792.203 263.663 788.31 265.013 784.578 266.26C782.605 266.92 780.64 269.547 779.092 266.411C778.279 264.762 778.282 262.105 778.964 260.339C781.25 254.423 779.637 252.833 773.949 254.564C773.458 254.714 772.002 253.521 772.071 253.191C772.32 251.988 772.753 250.276 773.61 249.866C775.976 248.733 779.767 248.977 780.902 247.221C785.592 239.951 792.406 240.823 799.352 240.905Z" fill="url(#paint8_linear_2370_588)"/>
<path d="M676.195 434C675.472 430.898 668.232 427.187 676.999 424.91C677.554 424.767 678.369 423.302 678.181 422.832C675.408 415.876 680.765 412.822 684.327 409.034C691.17 401.754 700.248 398.581 709.143 395.285C710.808 394.666 713.777 395.493 715.042 396.8C716.051 397.848 715.901 400.796 715.379 402.627C711.998 414.48 704.128 422.356 691.972 428.456C686.706 431.101 682.158 435.095 675.788 433.567L676.195 434Z" fill="url(#paint9_linear_2370_588)"/>
<path d="M586.449 405.138C591.318 402.159 596.098 404.951 600.643 410.517C602.863 413.236 606.547 414.623 609.398 416.848C612.524 419.287 614.403 422.434 612.217 426.519C610.261 430.179 606.873 431.848 603.077 430.987C600.106 430.312 596.691 429.111 594.7 426.935C588.733 420.413 581.319 418.022 573.175 416.594C571.614 416.32 569.384 413.713 569.356 412.147C569.324 410.297 571.027 407.219 572.549 406.773C576.352 405.661 580.475 405.738 586.449 405.138Z" fill="url(#paint10_linear_2370_588)"/>
<path d="M941.253 322.048C941.385 322.736 942.034 325.39 942.358 328.085C942.669 330.674 943.323 333.516 942.643 335.881C940.645 342.835 937.707 345.576 936.222 343.808C931.546 338.239 931.003 346.385 927.877 345.822C925.14 345.33 921.948 342.419 922.511 339.107C924.038 330.134 925.451 321.113 927.63 312.302C928.28 309.666 931.177 307.523 933.312 305.45C933.898 304.881 935.81 304.903 936.495 305.467C940.999 309.172 941.917 312.178 941.253 322.048Z" fill="url(#paint11_linear_2370_588)"/>
<path d="M751.657 246.694C753.018 246.691 754.403 246.516 755.735 246.72C762.762 247.793 767.599 254.271 766.082 260.465C764.799 265.703 756.191 270.339 750.643 268.494C748.095 267.646 745.674 266.233 743.377 264.775C738.947 261.968 734.829 257.995 736.333 252.449C737.667 247.525 743.072 247.108 747.576 246.716C748.928 246.598 750.297 246.698 751.657 246.694Z" fill="url(#paint12_linear_2370_588)"/>
<path d="M749.33 217.09C746.96 217.725 745.438 218.361 743.874 218.511C738.334 219.043 735.605 221.102 738.404 227.344C738.925 228.505 737.742 230.487 737.347 232.09C736.313 231.229 734.543 230.509 734.363 229.484C732.966 221.589 727.604 220.415 721.288 220.849C715.503 221.246 709.735 221.914 703.95 222.322C702.017 222.459 700.055 222.167 698.105 222.071C698.678 219.08 698.313 214.547 700.022 213.433C703.224 211.348 707.769 210.043 711.498 210.531C723.834 212.148 736.053 214.709 749.33 217.09Z" fill="url(#paint13_linear_2370_588)"/>
<path d="M846.789 381.661C852.769 375.958 854.078 368.954 852.477 361.039C852.258 359.955 851.879 357.987 852.176 357.848C859 354.733 864.652 348.634 872.8 348.887C873.658 348.915 874.641 349.188 875.321 349.701C875.998 350.212 876.614 351.11 876.782 351.943C876.9 352.527 876.204 353.889 875.906 353.879C868.714 353.631 867.882 359.075 865.797 364.496C862.553 372.93 856.214 378.879 846.789 381.661Z" fill="url(#paint14_linear_2370_588)"/>
<path d="M311.321 249.927C311.219 249.982 309.717 251.349 308.114 251.487C306.963 251.586 305.002 250.327 304.567 249.194C301.746 241.831 302.35 240.101 308.78 235.891C310.644 234.671 313.068 232.552 314.623 233.022C317.749 233.968 321.312 235.776 323.116 238.399C325.379 241.694 323.218 249.715 320.168 250.833C318.09 251.593 315.356 250.428 311.321 249.927Z" fill="url(#paint15_linear_2370_588)"/>
<path d="M847.034 170.123C847.855 170.313 851.517 170.59 854.655 172.065C857.237 173.28 860.929 175.78 861.091 177.952C861.46 182.917 856.835 181.015 854.052 181.461C852.729 181.673 851.389 181.764 850.078 182.029C846.802 182.688 845.061 188.871 841.223 185.774C838.904 183.903 839.223 179.698 835.64 177.372C832.242 175.168 834.512 170.506 838.902 170.147C840.687 170.002 842.496 170.123 847.034 170.123Z" fill="url(#paint16_linear_2370_588)"/>
<path d="M105.611 191.466C108.452 193.708 111.115 194.723 111.759 196.517C114.094 203.013 115.792 209.757 117.525 216.464C117.602 216.763 115.522 218.3 114.682 218.113C108.65 216.779 99.8588 205.533 100.602 199.308C100.908 196.733 103.607 194.463 105.611 191.466Z" fill="url(#paint17_linear_2370_588)"/>
<path d="M755.286 362.886C754.372 369.952 748.967 373.527 743.05 372.293C740.438 371.749 737.738 371.579 735.069 371.462C732.809 371.363 730.538 371.587 728.272 371.667C729.698 368.872 730.55 364.378 732.664 363.607C738.475 361.486 744.789 360.663 750.97 359.94C752.412 359.772 754.117 362.04 755.286 362.886Z" fill="url(#paint18_linear_2370_588)"/>
<path d="M75.1549 132.712C82.5214 133.671 85.8152 139.992 89.1452 145.011C90.6307 147.251 88.0994 152.659 86.8346 156.429C86.2648 158.131 84.5158 158.883 82.9398 156.545C79.0926 150.833 74.9524 145.332 71.1794 139.568C70.351 138.304 69.8124 135.732 70.4827 134.79C71.3622 133.557 73.5723 133.343 75.1549 132.712Z" fill="url(#paint19_linear_2370_588)"/>
<path d="M964.259 208.836C972.112 210.665 979.972 212.454 987.796 214.399C988.449 214.561 989.155 215.732 989.269 216.521C989.335 216.984 988.368 217.878 987.704 218.139C976.642 222.522 966.664 218.748 956.926 213.537C956.222 213.161 955.648 212.126 955.471 211.292C955.402 210.971 956.585 209.993 957.24 209.942C959.5 209.771 961.779 209.877 964.05 209.877C964.121 209.53 964.19 209.183 964.259 208.836Z" fill="url(#paint20_linear_2370_588)"/>
<path d="M955.874 187.132C964.146 186.507 969.492 189.767 974.051 194.549C975.233 195.788 979.584 195.318 977.15 198.739C975.62 200.89 974.691 204.236 969.96 202.763C963.743 200.83 960.68 195.121 955.458 192.211C954.351 191.594 954.115 189.298 953.476 187.773C954.736 187.437 955.993 187.1 955.874 187.132Z" fill="url(#paint21_linear_2370_588)"/>
<path d="M785.434 116.468C785.555 109.254 792.448 109.107 796.153 105.655C796.478 105.352 798.617 106.467 799.325 107.403C802.232 111.248 801.204 118.613 796.927 120.974C793.79 122.707 789.916 123.391 787.858 118.456C787.418 117.403 785.992 116.795 785.02 115.983L785.434 116.468Z" fill="url(#paint22_linear_2370_588)"/>
<path d="M782.966 215.636C779.568 215.054 776.875 214.837 774.319 214.099C769.545 212.721 768.033 209.943 768.74 204.856C769.273 201.026 771.987 200.206 774.571 201.414C778.17 203.097 781.442 205.626 784.632 208.102C785.91 209.095 787.681 211.744 787.354 212.202C786.241 213.762 784.296 214.685 782.966 215.636Z" fill="url(#paint23_linear_2370_588)"/>
<path d="M57.8885 111.97C56.8279 112.887 55.6059 114.779 54.1929 114.945C52.6564 115.126 50.6653 114.054 49.361 112.922C45.4282 109.502 40.0314 107.228 39.6163 100.816C39.59 100.391 40.9569 99.5056 41.7211 99.4441C46.9483 99.0254 56.1873 105.187 57.7634 110.032C57.9017 110.454 57.8309 110.95 57.8885 111.97Z" fill="url(#paint24_linear_2370_588)"/>
<path d="M893.707 319.215C892.059 318.685 889.394 321.411 888.922 317.359C888.477 313.565 888.587 309.852 892.479 307.851C892.723 307.725 893.95 309.208 894.417 310.112C895.028 311.293 895.336 312.641 895.774 313.917C896.272 312.803 896.693 311.641 897.281 310.58C898.574 308.249 899.824 305.864 901.415 303.764C901.692 303.396 904.369 304.073 904.544 304.692C905.422 307.793 900.079 319.126 897.393 319.929C896.319 320.249 894.944 319.485 893.707 319.215Z" fill="url(#paint25_linear_2370_588)"/>
<path d="M835.563 211.762C837.724 213.4 840.219 214.592 841.461 216.613C841.902 217.329 839.614 220.494 838.009 221.794C834.137 224.93 826.275 223.31 823.999 219.024C823.633 218.336 824.384 216.181 825.115 215.834C828.308 214.322 831.685 213.224 835.563 211.762Z" fill="url(#paint26_linear_2370_588)"/>
<path d="M145.238 246.008C144.021 248.221 143.133 249.832 142.247 251.443C140.926 250.452 139.416 249.637 138.342 248.412C137.479 247.428 137.068 245.975 136.587 244.678C135.024 240.464 130.905 237.072 132.662 231.821C132.787 231.443 134.138 231.023 134.466 231.271C139.592 235.141 143.497 239.95 145.238 246.008Z" fill="url(#paint27_linear_2370_588)"/>
<path d="M610.186 323.927C609.045 328.008 607.96 331.95 606.758 335.855C606.725 335.961 605.182 335.906 604.735 335.481C600.845 331.764 602.976 327.873 604.46 323.936C604.939 322.661 604.592 321.009 605.185 319.835C605.618 318.979 606.927 318.326 607.933 318.162C608.447 318.078 609.48 319.16 609.705 319.903C610.101 321.214 610.06 322.67 610.186 323.927Z" fill="url(#paint28_linear_2370_588)"/>
<path d="M484.391 340.231C490.328 340.135 494.166 343.177 497.458 347.157C497.909 347.702 497.935 348.97 497.655 349.694C497.497 350.106 496.198 350.439 495.618 350.222C491.443 348.655 487.295 347.003 483.215 345.19C482.679 344.952 482.15 343.464 482.38 342.874C482.795 341.806 483.787 340.977 484.391 340.231Z" fill="url(#paint29_linear_2370_588)"/>
<path d="M102.309 181.323C101.824 181.794 100.658 182.924 99.4916 184.053C98.5216 182.861 97.5088 181.7 96.6079 180.455C96.3757 180.135 96.4877 179.545 96.4416 179.079L95.572 170.14C96.4399 170.292 97.4363 170.212 98.1527 170.637C101.669 172.727 102.993 175.988 102.309 181.323Z" fill="url(#paint30_linear_2370_588)"/>
<path d="M781.677 379.745C778.98 378.034 774.599 380.553 772.335 376.481C775.543 375.618 778.726 374.618 781.974 373.964C783.204 373.716 784.81 373.891 785.824 374.56C786.719 375.152 787.257 376.649 787.489 377.845C787.588 378.351 786.59 379.506 785.936 379.659C784.675 379.953 783.305 379.745 781.677 379.745Z" fill="url(#paint31_linear_2370_588)"/>
<path d="M124.486 218.502C127.984 219.589 130.559 224.869 129.054 228.186C128.796 228.755 127.567 229.275 126.903 229.148C123.88 228.576 120.973 222.468 122.358 219.587C122.64 219.003 123.754 218.851 124.486 218.502Z" fill="url(#paint32_linear_2370_588)"/>
<path d="M645.255 305.911C643.465 306.575 641.611 307.963 640.157 307.602C638.767 307.259 636.952 305.164 636.851 303.723C636.733 302.001 637.973 299.909 639.197 298.518C639.565 298.098 642.268 299.099 643.128 300.138C644.167 301.392 644.386 303.38 645.255 305.911Z" fill="url(#paint33_linear_2370_588)"/>
<path d="M827.805 369.285C825.307 371.59 823.884 373.928 822.501 373.902C820.999 373.875 818.808 371.934 818.222 370.317C817.358 367.933 818.713 365.585 821.521 365.955C823.285 366.185 824.895 367.679 827.805 369.285Z" fill="url(#paint34_linear_2370_588)"/>
<path d="M111.2 168.212C109.138 169.814 107.158 172.047 106.537 171.697C104.813 170.721 102.766 168.776 102.568 167.008C102.432 165.782 105.149 164.214 106.592 162.799C107.978 164.429 109.367 166.058 111.2 168.212Z" fill="url(#paint35_linear_2370_588)"/>
<path d="M187.47 305.126C184.373 305.593 182.49 306.491 181.245 305.914C179.465 305.089 178.149 303.181 176.635 301.736C178.235 301.302 180.036 300.176 181.382 300.603C183.198 301.177 184.664 302.946 187.47 305.126Z" fill="url(#paint36_linear_2370_588)"/>
<path d="M801.836 350.28C799.613 351.746 798.026 353.04 796.226 353.793C795.827 353.957 793.851 351.768 794.025 351.416C794.934 349.571 796.3 347.966 797.505 346.274C798.754 347.43 800.002 348.585 801.836 350.28Z" fill="url(#paint37_linear_2370_588)"/>
<path d="M947.489 197.854C945.231 199.315 943.749 201.022 942.705 200.769C941.284 200.426 939.457 198.73 939.21 197.343C939.013 196.241 940.92 194.732 941.893 193.404C943.433 194.628 944.973 195.853 947.489 197.854Z" fill="url(#paint38_linear_2370_588)"/>
</g>
</g>
<defs>
<filter id="filter0_n_2370_588" x="0" y="0" width="1110" height="483.596" filterUnits="userSpaceOnUse" color-interpolation-filters="sRGB">
<feFlood flood-opacity="0" result="BackgroundImageFix"/>
<feBlend mode="normal" in="SourceGraphic" in2="BackgroundImageFix" result="shape"/>
<feTurbulence type="fractalNoise" baseFrequency="1.9395684003829956 1.9395684003829956" stitchTiles="stitch" numOctaves="3" result="noise" seed="9286" />
<feColorMatrix in="noise" type="luminanceToAlpha" result="alphaNoise" />
<feComponentTransfer in="alphaNoise" result="coloredNoise1">
<feFuncA type="discrete" tableValues="1 1 1 1 1 1 1 1 1 1 1 1 1 1 1 1 1 1 1 1 1 1 1 1 1 1 1 1 1 1 1 1 1 1 1 1 1 1 1 1 1 1 1 1 1 1 1 1 1 1 1 0 0 0 0 0 0 0 0 0 0 0 0 0 0 0 0 0 0 0 0 0 0 0 0 0 0 0 0 0 0 0 0 0 0 0 0 0 0 0 0 0 0 0 0 0 0 0 0 0 "/>
</feComponentTransfer>
<feComposite operator="in" in2="shape" in="coloredNoise1" result="noise1Clipped" />
<feFlood flood-color="rgba(0, 0, 0, 0.25)" result="color1Flood" />
<feComposite operator="in" in2="noise1Clipped" in="color1Flood" result="color1" />
<feMerge result="effect1_noise_2370_588">
<feMergeNode in="shape" />
<feMergeNode in="color1" />
</feMerge>
</filter>
<linearGradient id="paint0_linear_2370_588" x1="457.298" y1="62.2168" x2="457.298" y2="274.55" gradientUnits="userSpaceOnUse">
<stop stop-color="#006CB7"/>
<stop offset="1" stop-color="#9BC117"/>
</linearGradient>
<linearGradient id="paint1_linear_2370_588" x1="159.362" y1="34.0371" x2="159.362" y2="319.251" gradientUnits="userSpaceOnUse">
<stop stop-color="#006CB7"/>
<stop offset="1" stop-color="#9BC117"/>
</linearGradient>
<linearGradient id="paint2_linear_2370_588" x1="963.533" y1="179.014" x2="963.533" y2="403.726" gradientUnits="userSpaceOnUse">
<stop stop-color="#006CB7"/>
<stop offset="1" stop-color="#9BC117"/>
</linearGradient>
<linearGradient id="paint3_linear_2370_588" x1="643.955" y1="127.527" x2="643.955" y2="316.571" gradientUnits="userSpaceOnUse">
<stop stop-color="#006CB7"/>
<stop offset="1" stop-color="#9BC117"/>
</linearGradient>
<linearGradient id="paint4_linear_2370_588" x1="371.878" y1="315.01" x2="371.878" y2="390.009" gradientUnits="userSpaceOnUse">
<stop stop-color="#006CB7"/>
<stop offset="1" stop-color="#9BC117"/>
</linearGradient>
<linearGradient id="paint5_linear_2370_588" x1="782.003" y1="115.984" x2="782.003" y2="194.076" gradientUnits="userSpaceOnUse">
<stop stop-color="#006CB7"/>
<stop offset="1" stop-color="#9BC117"/>
</linearGradient>
<linearGradient id="paint6_linear_2370_588" x1="648.76" y1="373.826" x2="648.76" y2="393.935" gradientUnits="userSpaceOnUse">
<stop stop-color="#006CB7"/>
<stop offset="1" stop-color="#9BC117"/>
</linearGradient>
<linearGradient id="paint7_linear_2370_588" x1="535.834" y1="373.302" x2="535.834" y2="398.639" gradientUnits="userSpaceOnUse">
<stop stop-color="#006CB7"/>
<stop offset="1" stop-color="#9BC117"/>
</linearGradient>
<linearGradient id="paint8_linear_2370_588" x1="811.145" y1="239.422" x2="811.145" y2="268.364" gradientUnits="userSpaceOnUse">
<stop stop-color="#006CB7"/>
<stop offset="1" stop-color="#9BC117"/>
</linearGradient>
<linearGradient id="paint9_linear_2370_588" x1="694.244" y1="395.075" x2="694.244" y2="434" gradientUnits="userSpaceOnUse">
<stop stop-color="#006CB7"/>
<stop offset="1" stop-color="#9BC117"/>
</linearGradient>
<linearGradient id="paint10_linear_2370_588" x1="591.259" y1="403.927" x2="591.259" y2="431.21" gradientUnits="userSpaceOnUse">
<stop stop-color="#006CB7"/>
<stop offset="1" stop-color="#9BC117"/>
</linearGradient>
<linearGradient id="paint11_linear_2370_588" x1="932.693" y1="305.033" x2="932.693" y2="345.85" gradientUnits="userSpaceOnUse">
<stop stop-color="#006CB7"/>
<stop offset="1" stop-color="#9BC117"/>
</linearGradient>
<linearGradient id="paint12_linear_2370_588" x1="751.189" y1="246.621" x2="751.189" y2="268.906" gradientUnits="userSpaceOnUse">
<stop stop-color="#006CB7"/>
<stop offset="1" stop-color="#9BC117"/>
</linearGradient>
<linearGradient id="paint13_linear_2370_588" x1="723.718" y1="210.429" x2="723.718" y2="232.09" gradientUnits="userSpaceOnUse">
<stop stop-color="#006CB7"/>
<stop offset="1" stop-color="#9BC117"/>
</linearGradient>
<linearGradient id="paint14_linear_2370_588" x1="861.792" y1="348.88" x2="861.792" y2="381.661" gradientUnits="userSpaceOnUse">
<stop stop-color="#006CB7"/>
<stop offset="1" stop-color="#9BC117"/>
</linearGradient>
<linearGradient id="paint15_linear_2370_588" x1="313.509" y1="232.955" x2="313.509" y2="251.493" gradientUnits="userSpaceOnUse">
<stop stop-color="#006CB7"/>
<stop offset="1" stop-color="#9BC117"/>
</linearGradient>
<linearGradient id="paint16_linear_2370_588" x1="847.556" y1="170.076" x2="847.556" y2="186.637" gradientUnits="userSpaceOnUse">
<stop stop-color="#006CB7"/>
<stop offset="1" stop-color="#9BC117"/>
</linearGradient>
<linearGradient id="paint17_linear_2370_588" x1="109.042" y1="191.466" x2="109.042" y2="218.129" gradientUnits="userSpaceOnUse">
<stop stop-color="#006CB7"/>
<stop offset="1" stop-color="#9BC117"/>
</linearGradient>
<linearGradient id="paint18_linear_2370_588" x1="741.779" y1="359.931" x2="741.779" y2="372.533" gradientUnits="userSpaceOnUse">
<stop stop-color="#006CB7"/>
<stop offset="1" stop-color="#9BC117"/>
</linearGradient>
<linearGradient id="paint19_linear_2370_588" x1="79.8896" y1="132.712" x2="79.8896" y2="158.019" gradientUnits="userSpaceOnUse">
<stop stop-color="#006CB7"/>
<stop offset="1" stop-color="#9BC117"/>
</linearGradient>
<linearGradient id="paint20_linear_2370_588" x1="972.37" y1="208.836" x2="972.37" y2="220.064" gradientUnits="userSpaceOnUse">
<stop stop-color="#006CB7"/>
<stop offset="1" stop-color="#9BC117"/>
</linearGradient>
<linearGradient id="paint21_linear_2370_588" x1="965.677" y1="187.056" x2="965.677" y2="203.126" gradientUnits="userSpaceOnUse">
<stop stop-color="#006CB7"/>
<stop offset="1" stop-color="#9BC117"/>
</linearGradient>
<linearGradient id="paint22_linear_2370_588" x1="792.996" y1="105.604" x2="792.996" y2="122.264" gradientUnits="userSpaceOnUse">
<stop stop-color="#006CB7"/>
<stop offset="1" stop-color="#9BC117"/>
</linearGradient>
<linearGradient id="paint23_linear_2370_588" x1="777.984" y1="200.898" x2="777.984" y2="215.636" gradientUnits="userSpaceOnUse">
<stop stop-color="#006CB7"/>
<stop offset="1" stop-color="#9BC117"/>
</linearGradient>
<linearGradient id="paint24_linear_2370_588" x1="48.7522" y1="99.4238" x2="48.7522" y2="114.965" gradientUnits="userSpaceOnUse">
<stop stop-color="#006CB7"/>
<stop offset="1" stop-color="#9BC117"/>
</linearGradient>
<linearGradient id="paint25_linear_2370_588" x1="896.691" y1="303.66" x2="896.691" y2="320.006" gradientUnits="userSpaceOnUse">
<stop stop-color="#006CB7"/>
<stop offset="1" stop-color="#9BC117"/>
</linearGradient>
<linearGradient id="paint26_linear_2370_588" x1="832.71" y1="211.762" x2="832.71" y2="223.429" gradientUnits="userSpaceOnUse">
<stop stop-color="#006CB7"/>
<stop offset="1" stop-color="#9BC117"/>
</linearGradient>
<linearGradient id="paint27_linear_2370_588" x1="138.736" y1="231.197" x2="138.736" y2="251.443" gradientUnits="userSpaceOnUse">
<stop stop-color="#006CB7"/>
<stop offset="1" stop-color="#9BC117"/>
</linearGradient>
<linearGradient id="paint28_linear_2370_588" x1="606.356" y1="318.157" x2="606.356" y2="335.902" gradientUnits="userSpaceOnUse">
<stop stop-color="#006CB7"/>
<stop offset="1" stop-color="#9BC117"/>
</linearGradient>
<linearGradient id="paint29_linear_2370_588" x1="490.081" y1="340.229" x2="490.081" y2="350.291" gradientUnits="userSpaceOnUse">
<stop stop-color="#006CB7"/>
<stop offset="1" stop-color="#9BC117"/>
</linearGradient>
<linearGradient id="paint30_linear_2370_588" x1="99.0275" y1="170.14" x2="99.0275" y2="184.053" gradientUnits="userSpaceOnUse">
<stop stop-color="#006CB7"/>
<stop offset="1" stop-color="#9BC117"/>
</linearGradient>
<linearGradient id="paint31_linear_2370_588" x1="779.915" y1="373.857" x2="779.915" y2="379.817" gradientUnits="userSpaceOnUse">
<stop stop-color="#006CB7"/>
<stop offset="1" stop-color="#9BC117"/>
</linearGradient>
<linearGradient id="paint32_linear_2370_588" x1="125.748" y1="218.502" x2="125.748" y2="229.167" gradientUnits="userSpaceOnUse">
<stop stop-color="#006CB7"/>
<stop offset="1" stop-color="#9BC117"/>
</linearGradient>
<linearGradient id="paint33_linear_2370_588" x1="641.049" y1="298.42" x2="641.049" y2="307.661" gradientUnits="userSpaceOnUse">
<stop stop-color="#006CB7"/>
<stop offset="1" stop-color="#9BC117"/>
</linearGradient>
<linearGradient id="paint34_linear_2370_588" x1="822.884" y1="365.916" x2="822.884" y2="373.902" gradientUnits="userSpaceOnUse">
<stop stop-color="#006CB7"/>
<stop offset="1" stop-color="#9BC117"/>
</linearGradient>
<linearGradient id="paint35_linear_2370_588" x1="106.881" y1="162.799" x2="106.881" y2="171.733" gradientUnits="userSpaceOnUse">
<stop stop-color="#006CB7"/>
<stop offset="1" stop-color="#9BC117"/>
</linearGradient>
<linearGradient id="paint36_linear_2370_588" x1="182.053" y1="300.508" x2="182.053" y2="306.101" gradientUnits="userSpaceOnUse">
<stop stop-color="#006CB7"/>
<stop offset="1" stop-color="#9BC117"/>
</linearGradient>
<linearGradient id="paint37_linear_2370_588" x1="797.925" y1="346.274" x2="797.925" y2="353.802" gradientUnits="userSpaceOnUse">
<stop stop-color="#006CB7"/>
<stop offset="1" stop-color="#9BC117"/>
</linearGradient>
<linearGradient id="paint38_linear_2370_588" x1="943.343" y1="193.404" x2="943.343" y2="200.794" gradientUnits="userSpaceOnUse">
<stop stop-color="#006CB7"/>
<stop offset="1" stop-color="#9BC117"/>
</linearGradient>
<clipPath id="clip0_2370_588">
<rect width="1110" height="483.596" fill="white"/>
</clipPath>
</defs>
</svg>
