<?xml version="1.0" encoding="UTF-8" standalone="no"?><!DOCTYPE svg PUBLIC "-//W3C//DTD SVG 1.1//EN" "http://www.w3.org/Graphics/SVG/1.1/DTD/svg11.dtd"><svg width="100%" height="100%" viewBox="0 0 674 283" version="1.1" xmlns="http://www.w3.org/2000/svg" xmlns:xlink="http://www.w3.org/1999/xlink" xml:space="preserve" xmlns:serif="http://www.serif.com/" style="fill-rule:evenodd;clip-rule:evenodd;stroke-linejoin:round;stroke-miterlimit:2;"><rect id="Indonesia" x="0" y="0" width="673.68" height="282.48" style="fill:none;"/><g id="Indonesia1" serif:id="Indonesia"><g><path d="M329.171,105.58c1.156,4.501 -0.27,7.976 -5.164,10.227c-2.138,0.983 -3.652,3.313 -5.468,5.011c-1.941,1.816 -4.86,3.306 -5.558,5.507c-0.568,1.795 1.436,4.46 2.435,6.678c0.88,1.953 -0.188,3.077 -1.448,4.247c-3.368,3.132 -4.98,6.242 -2.187,11.018c2.64,4.515 -1.078,8.28 -3.318,11.954c-0.149,0.245 -1.982,-0.079 -2.51,-0.634c-0.709,-0.746 -1.052,-1.944 -1.298,-3.006c-0.436,-1.884 -1.124,-1.767 -2.764,-1.049c-3.995,1.748 -8.13,3.194 -12.261,4.607c-3.33,1.139 -4.265,0.549 -5.163,-2.935c-0.203,-0.789 0.169,-1.89 -0.256,-2.427c-1.108,-1.4 -2.78,-3.825 -3.752,-3.618c-5.546,1.184 -9.473,-2.363 -13.9,-4.231c-1.821,-0.769 -2.896,-0.97 -4.29,0.432c-2.696,2.712 -5.719,4.038 -9.524,2.065c-0.586,-0.304 -1.611,0.071 -2.377,0.31c-4.233,1.317 -4.418,1.387 -5.522,-2.739c-0.51,-1.911 -0.992,-2.939 -3.15,-2.688c-1.911,0.223 -4.208,-0.464 -5.718,0.369c-4.64,2.56 -7.687,-2.227 -11.721,-2.108c-0.388,0.011 -1.075,-1.142 -1.175,-1.821c-0.711,-4.86 -1.315,-9.738 -1.926,-14.613c-0.068,-0.54 0.233,-1.189 0.03,-1.638c-0.995,-2.198 3.657,-4.749 -0.07,-6.357c-1.704,-0.736 -4.19,0.416 -6.331,0.56c-0.564,0.038 -1.593,-0.385 -1.687,-0.771c-1.394,-5.712 -4.65,-11.02 -3.519,-17.313c0.254,-1.412 -0.418,-3.283 -1.258,-4.548c-3.276,-4.938 -2.733,-9.948 -0.312,-14.815c1.688,-3.393 3.749,-6.704 6.195,-9.584c1.868,-2.199 3.575,-1.61 5.179,0.932c1.459,2.311 2.874,4.652 4.43,6.896c3.402,4.907 7.011,8.941 13.902,5.218c1.733,-0.936 4.365,-0.451 6.551,-0.253c4.187,0.381 7.339,-1.178 10.287,-4.094c5.206,-5.148 7.812,-5.965 13.728,-1.95c5.536,3.759 10.451,0.766 15.598,0.402c1.262,-0.089 2.861,-1.867 3.49,-3.242c1.877,-4.096 6.418,-6.867 5.635,-12.439c-0.213,-1.518 2.267,-3.568 3.762,-5.136c2.561,-2.686 4.498,-5.519 4.23,-9.469c-0.071,-1.044 0.291,-2.158 0.625,-3.184c2.721,-8.348 4.02,-10.246 13.685,-8.164c1.197,0.258 2.604,0.33 3.737,-0.045c4.494,-1.486 8.646,-0.543 12.744,1.345c3.513,1.618 3.955,4.129 1.548,8.467c-0.377,0.678 -0.275,1.657 -0.719,2.258c-2.523,3.425 -2.608,5.885 0.992,9.216c2.541,2.351 3.216,6.728 4.616,10.244c0.038,0.095 -1.136,0.868 -1.81,1.01c-1.309,0.273 -2.084,0.808 -1.132,2.065c1.621,2.142 3.192,4.397 5.173,6.17c2.409,2.156 5.339,3.724 7.816,5.816c1.471,1.243 1.45,3.133 -0.407,4.056c-1.663,0.828 -3.614,1.323 -5.472,1.446c-2.027,0.134 -4.094,-0.328 -6.143,-0.531c0.196,3.154 -3.093,0.588 -3.727,2.251c-1.164,3.049 -2.413,6.085 -3.278,9.223c-0.425,1.541 -0.073,3.296 -0.073,5.402" style="fill:#e9e9e9;fill-rule:nonzero;"/><path d="M174.913,138.813c-1.677,2.012 3.234,5.229 -0.679,6.162c-1.686,0.402 -4.012,-2.232 -6.15,-3.278c-2.78,-1.36 -3.67,-0.994 -2.063,2.206c0.421,0.838 -0.413,2.824 -1.27,3.692c-2.767,2.803 0.22,6.245 -1.406,9.267c-1.397,2.597 -1.434,5.428 -0.658,8.684c1.36,5.702 -1.338,11.274 -2.499,16.874c-0.349,1.684 -1.314,1.417 -2.338,0.719c-2.368,-1.614 -4.558,-2.379 -6.666,0.521c-0.235,0.323 -1.916,-0.328 -2.89,-0.639c-1.428,-0.455 -2.824,-1.009 -4.235,-1.521c0.311,1.267 0.687,2.522 0.896,3.806c0.077,0.474 -0.241,1.011 -0.379,1.52c-0.657,-0.24 -1.523,-0.292 -1.934,-0.751c-2.01,-2.246 -4.463,-4.337 -5.702,-6.978c-2.006,-4.279 -5.345,-6.827 -9.096,-9.198c-3.931,-2.484 -8.045,-4.779 -11.584,-7.747c-2.429,-2.036 -4.102,-5.02 -5.937,-7.701c-0.9,-1.315 -1.007,-3.644 -2.144,-4.246c-6.374,-3.373 -8.958,-10.312 -14.279,-14.635c-2.086,-1.695 -4.328,-3.577 -2.568,-6.98c0.359,-0.694 -0.377,-2.036 -0.76,-3.019c-3.605,-9.25 -8.732,-17.658 -14.351,-25.789c-0.311,-0.449 -0.669,-0.973 -1.133,-1.195c-6.269,-2.993 -7.599,-8.822 -8.698,-14.849c-0.341,-1.87 -0.963,-3.707 -1.624,-5.497c-1.581,-4.282 -4.087,-7.641 -8.659,-9.28c-3.099,-1.11 -4.919,-2.937 -6.189,-6.712c-1.76,-5.234 -5.947,-9.656 -9.138,-14.396c-0.286,-0.425 -0.867,-0.853 -1.354,-0.91c-8.371,-0.991 -11.796,-8.462 -17.144,-13.314c-1.861,-1.688 -2.54,-4.743 -3.584,-7.247c-0.804,-1.925 -2.736,-4.39 -0.487,-5.9c1.508,-1.012 4.198,-0.373 6.348,-0.261c0.751,0.038 1.471,0.706 2.203,1.088c5.762,3.007 11.896,4.255 18.343,3.552c6.05,-0.659 9.975,1.847 12.286,7.384c1.242,2.975 4.844,4.555 4.936,8.362c0.018,0.765 1.401,1.584 2.268,2.225c5.291,3.912 10.625,7.765 15.917,11.675c0.88,0.651 2.124,1.368 2.338,2.262c0.699,2.903 2.298,4.401 5.15,5.342c1.263,0.416 1.974,2.497 2.94,3.819c1.015,1.388 2.009,2.689 3.951,1.18c2.107,-1.637 4.091,-1.206 5.903,0.59c0.392,0.388 0.766,0.845 1.241,1.094c4.595,2.408 5.961,3.546 7.965,7.048c0.768,1.343 1.475,2.136 3.188,1.232c3.072,-1.621 4.788,-0.129 5.178,2.895c0.426,3.309 1.262,5.239 5.25,3.838c2.163,-0.76 3.937,3.271 6.934,0.904c0.848,-0.669 3.402,3.412 2.281,4.077c-3.049,1.81 -1.873,2.966 -0.071,4.56c1.228,1.087 2.36,2.295 3.421,3.545c0.294,0.348 0.395,1.424 0.228,1.517c-2.797,1.534 -1.056,4.804 -2.64,6.736c-0.872,1.063 -2.264,1.858 -2.731,3.046c-0.385,0.977 -0.186,2.812 0.51,3.471c2.267,2.148 5.177,2.692 8.339,2.839c4.223,0.197 5.4,0.908 4.736,4.879c-1.047,6.269 5.59,7.557 6.72,12.208c0.139,0.574 1.904,1.097 2.893,1.057c2.824,-0.116 4.735,0.775 5.807,3.561c0.257,0.665 1.618,0.904 2.47,1.339c0.223,-1.022 0.809,-2.124 0.606,-3.053c-0.822,-3.747 -2.05,-4.586 -6.283,-4.849c-1.361,-0.084 -2.73,-0.161 -4.072,-0.379c-0.244,-0.04 -0.641,-0.99 -0.525,-1.117c1.95,-2.135 3.777,-4.461 6.054,-6.186c1.145,-0.866 3.131,-0.663 4.746,-0.857c3.092,-0.373 4.988,1.295 4.958,4.138c-0.052,5.094 1.824,8.441 6.838,9.915c0.666,0.196 1.541,1.149 1.538,1.749c-0.002,0.637 -0.934,1.271 -1.46,1.906" style="fill:#e9e9e9;fill-rule:nonzero;"/><path d="M660.645,236.26c-5.014,-4.982 -9.379,-9.164 -13.545,-13.537c-1.693,-1.776 -3.416,-2.466 -5.848,-2.181c-2.305,0.271 -4.569,2.072 -7.075,0.205c-0.459,-0.341 -2.245,0.312 -2.797,1.003c-5.171,6.474 -12.294,2.795 -18.524,3.635c-0.161,0.021 -0.846,-1.286 -0.658,-1.62c2.28,-4.043 4.482,-8.158 7.149,-11.942c0.973,-1.379 3.028,-2.216 4.759,-2.797c3.649,-1.224 3.001,-1.034 2.68,-5.145c-0.628,-8.058 -5.516,-13.997 -9.22,-20.472c-2.799,-4.891 -7.47,-7.867 -13.073,-9.386c-3.132,-0.848 -6.19,-2.174 -9.073,-3.682c-4.426,-2.317 -8.937,-4.309 -13.983,-4.342c-4.425,-0.03 -8.008,-1.531 -10.979,-4.767c-0.673,-0.734 -1.945,-1.847 -2.483,-1.634c-5.676,2.256 -8.654,-1.692 -11.754,-5.042c-1.991,-2.152 -2.925,-1.688 -3.764,0.769c-0.264,0.771 -0.656,1.528 -1.124,2.196c-1.48,2.115 -3.394,3.61 -6.13,3.252c-1.97,-0.257 -3.733,-3.843 -3.482,-6.712c0.513,-5.888 -1.064,-8.151 -7.236,-9.668c-1.853,-0.455 -3.584,-1.207 -2.869,-2.996c0.561,-1.404 3.236,-3.43 3.902,-3.089c4.517,2.311 7.959,0.63 11.238,-2.227c1.806,-1.572 3.501,-0.43 5.284,-0.125c1.076,0.184 2.216,0.2 3.301,0.069c0.715,-0.087 1.383,-0.568 2.072,-0.873c-0.749,-0.762 -1.437,-2.091 -2.26,-2.181c-2.449,-0.269 -4.956,-0.123 -7.432,0.02c-0.781,0.045 -1.515,0.82 -2.301,0.878c-8.761,0.65 -11.677,2.177 -15.65,-7.562c-0.926,-2.267 -2.395,-3.834 -4.954,-3.487c-5.906,0.799 -10.2,-1.17 -12.733,-6.723c-0.303,-0.665 -1.251,-1.012 -1.816,-1.589c-0.426,-0.437 -1.123,-1.249 -0.99,-1.473c0.394,-0.663 1.07,-1.435 1.763,-1.585c1.319,-0.287 2.95,-0.657 4.06,-0.144c6.394,2.956 12.068,0.107 16.685,-3.231c6.176,-4.466 11.319,-4.28 17.309,-0.291c2.431,1.619 5.472,2.48 8.353,3.23c6.316,1.643 8.127,4.329 7.011,10.499c-0.673,3.726 -1.167,7.516 -1.326,11.294c-0.137,3.299 1.102,3.946 3.867,2.01c1.664,-1.166 3.027,-2.196 2.608,0.795c-0.547,3.906 1.591,6.435 3.315,9.421c2.708,4.69 4.808,5.815 8.728,2.477c3.906,-3.326 7.506,-7.315 10.189,-11.662c1.559,-2.523 3.144,-3.167 5.596,-3.796c3.314,-0.851 6.471,-1.487 8.28,-5.638c2.012,-4.616 6.59,-5.372 11.867,-3.891c5.048,1.418 9.799,3.305 14.222,6.227c5.282,3.49 11.035,5.915 17.515,6.452c2.397,0.199 4.74,1.206 7.074,1.952c2.057,0.658 2.968,2.034 2.926,4.334c-0.114,6.354 -0.18,12.718 0.049,19.066c0.207,5.76 0.899,11.5 1.232,17.257c0.175,3.03 0.506,6.165 -0.043,9.101c-1.95,10.432 -1.336,20.759 -0.037,31.203c0.7,5.628 0.125,11.415 0.125,18.145" style="fill:#e9e9e9;fill-rule:nonzero;"/><path d="M415.996,97.103c-3.809,-0.832 -6.971,-1.555 -10.148,-2.197c-1.076,-0.217 -2.19,-0.313 -3.289,-0.324c-10.498,-0.099 -20.996,-0.156 -31.494,-0.256c-2.924,-0.028 -4.492,1.461 -5.356,4.164c-1.984,6.206 -2.265,11.905 4.094,15.928c2.171,1.374 1.899,6.072 5.653,4.867c2.137,-0.686 3.685,-3.075 5.644,-4.495c1.271,-0.921 3.157,-2.421 4.167,-2.046c6.385,2.366 11.222,-2.377 16.849,-3.265c1.312,-0.206 2.484,-1.228 3.798,-1.497c4.466,-0.912 7.072,1.619 5.654,6.033c-0.712,2.214 -0.839,3.009 1.115,4.544c1.111,0.873 1.082,3.484 1.139,5.326c0.05,1.554 -0.932,2.49 -2.706,1.852c-1.955,-0.704 -3.891,-1.818 -5.885,-1.944c-1.46,-0.091 -2.749,0.354 -3.048,-1.502c-0.308,-1.917 -0.619,-3.924 2.126,-4.518c1.051,-0.228 2.088,-0.649 3.037,-1.16c0.401,-0.216 0.558,-0.887 0.826,-1.352c-0.491,-0.221 -1.05,-0.719 -1.462,-0.618c-1.776,0.435 -4.44,0.518 -5.097,1.681c-3.039,5.372 -7.949,8.095 -13.059,10.882c-3.278,1.787 -3.071,2.597 -0.709,5.294c2.886,3.298 5.803,6.607 8.28,10.206c0.964,1.401 0.749,3.606 1.097,5.44c0.447,2.357 0.617,4.823 1.451,7.037c1.464,3.888 1.637,3.823 6.247,2.762c3.006,-0.691 4.767,0.705 3.466,3.361c-1.182,2.412 -0.578,3.996 0.052,6.138c0.406,1.376 0.108,4.074 -0.717,4.484c-2.317,1.153 -2.111,1.946 -0.493,3.361c2.469,2.16 1.379,3.805 -0.849,5.178c-0.91,0.561 -1.976,0.869 -2.888,1.426c-1.787,1.09 -3.483,2.335 -5.304,3.362c-0.315,0.177 -4.376,-8.009 -4.333,-8.815c0.186,-3.432 1.327,-6.346 4.073,-8.646c1.146,-0.96 0.533,-1.884 -0.931,-1.974c-2.764,-0.168 -4.998,0.275 -4.831,3.88c0.132,2.837 -1.961,3.098 -3.957,2.787c-4.647,-0.726 -7.389,-4.366 -5.566,-9.014c1.379,-3.514 0.024,-4.267 -2.372,-5.354c-1.236,-0.562 -2.522,-1.076 -3.639,-1.828c-2.277,-1.53 -3.354,-3.609 -2.359,-6.396c0.457,-1.28 1.282,-2.555 1.295,-3.839c0.024,-2.122 -0.475,-4.249 -0.755,-6.374c-1.735,0.602 -3.599,0.976 -5.175,1.861c-2.125,1.194 -3.287,3.166 -1.88,5.554c1.849,3.139 2.07,6.818 0.638,9.536c-2.094,3.978 0.847,7.542 -0.333,11.219c-1.219,3.801 -1.084,7.492 0.699,11.22c0.655,1.369 0.492,3.221 -2.063,3.453c-2.398,0.219 -4.759,0.885 -7.127,1.395c-5.06,1.092 -7.994,-1.677 -7.215,-6.929c0.802,-5.399 1.815,-10.769 2.484,-16.183c0.222,-1.802 -0.442,-3.696 -0.508,-5.554c-0.135,-3.753 -1.32,-5.02 -5.04,-2.908c-1.96,1.113 -4.203,-0.071 -4.594,-2.153c-0.794,-4.239 -2.13,-8.958 1.814,-12.364c4.619,-3.99 4.916,-9.437 5.923,-14.745c0.504,-2.652 0.377,-6.105 2.001,-7.736c4.898,-4.919 4.921,-11.162 6.407,-17.171c1.018,-4.122 3.494,-7.906 5.518,-11.735c0.268,-0.506 2.154,-0.85 2.553,-0.478c1.917,1.787 2.568,1.751 3.867,-0.884c2.954,-5.992 3.637,-6.004 9.48,-3.853c11.767,4.332 23.975,5.456 36.42,5.105c3.743,-0.106 5.646,-2.98 8.184,-4.799c2.116,-1.516 3.496,-4.02 5.445,-5.824c1.607,-1.487 3.397,-1.508 5.026,0.376c1.393,1.612 0.975,2.715 -0.272,4.239c-3.634,4.443 -6.547,9.633 -10.762,13.384c-2.541,2.261 -6.981,2.388 -10.306,3.395" style="fill:#e9e9e9;fill-rule:nonzero;"/><path d="M270.454,210.74c2.21,0 4.527,-0.416 6.598,0.12c1.962,0.508 4.884,1.7 5.254,3.138c1.145,4.465 4.195,3.819 7.1,3.413c3.791,-0.531 7.14,0.129 9.919,2.732c0.522,0.491 0.72,2.122 0.315,2.677c-2.763,3.785 -6.891,4.586 -11.321,2.436c-1.228,-0.596 -2.429,-1.273 -3.708,-1.724c-0.51,-0.181 -1.2,0.149 -1.808,0.246c0.137,0.516 0.274,1.031 0.41,1.547c0.256,0.969 0.511,1.938 0.766,2.908c-0.971,-0.106 -1.994,-0.05 -2.903,-0.344c-8.536,-2.762 -16.952,-5.294 -26.148,-5.962c-6.339,-0.461 -12.806,1.531 -19.133,-1.083c-5.773,-2.384 -11.93,-3.821 -17.852,-5.866c-4.731,-1.634 -15.036,-2.605 -22.045,-1.544c-3.262,0.494 -7.033,-0.551 -10.218,-1.802c-4.85,-1.905 -9.463,-3.721 -14.898,-2.941c-3.134,0.449 -3.588,-0.833 -3.131,-5.249c0.083,-0.798 -0.507,-2.318 -1.006,-2.419c-3.429,-0.696 -6.652,-2.92 -10.386,-1.608c-0.758,0.266 -1.72,0.887 -2.259,0.637c-0.904,-0.42 -1.74,-1.308 -2.207,-2.207c-0.201,-0.386 0.495,-1.794 0.946,-1.879c4.33,-0.814 5.912,-4.59 8.359,-7.45c2.825,-3.303 5.63,-5.788 10.527,-2.9c2.039,1.203 4.975,2.616 7.808,0.492c0.64,-0.48 2.643,-0.316 3.035,0.242c2.318,3.3 5.842,2.435 8.974,3.17c3.387,0.796 7.014,1.482 9.181,4.896c1.63,2.567 4.199,3.005 7.161,3.126c4.065,0.166 8.089,1.155 12.154,1.58c3.412,0.355 6.202,-0.118 8.255,-3.816c2.109,-3.796 2.688,-3.378 7.421,-1.448c2.208,0.902 4.667,1.416 7.051,1.597c2.539,0.191 4.775,0.453 6.85,2.264c1.087,0.95 2.985,1.201 4.553,1.332c7.652,0.638 15.317,1.111 22.972,1.71c0.62,0.049 1.199,0.615 1.796,0.94c-0.358,0.405 -0.639,0.953 -1.086,1.195c-5.077,2.757 -10.148,5.553 -16.306,3.852c-0.478,-0.132 -1.142,0.413 -1.72,0.643c0.38,0.669 0.646,1.805 1.159,1.931c3.125,0.77 6.307,1.31 9.47,1.926c0.034,-0.169 0.067,-0.339 0.101,-0.508" style="fill:#e9e9e9;fill-rule:nonzero;"/><path d="M476.67,67.874c0.331,2.492 -1.186,4.739 0.033,7.571c1.814,4.214 -1.725,7.061 -4.19,10.011c-0.35,0.419 0.008,1.43 0.038,2.167c0.473,-0.219 1.118,-0.31 1.387,-0.677c1.573,-2.151 2.882,-4.52 4.629,-6.509c1.353,-1.541 3.072,-2.948 4.915,-3.786c0.849,-0.387 2.76,0.404 3.494,1.258c0.652,0.761 0.558,2.377 0.395,3.56c-0.142,1.039 -0.604,2.246 -1.338,2.947c-1.568,1.498 -3.403,2.717 -5.129,4.05c1.648,0.997 3.601,1.714 4.845,3.077c1.015,1.112 1.215,2.988 1.702,4.547c0.123,0.395 -0.035,0.878 -0.063,1.32c-0.514,-0.041 -1.157,0.104 -1.52,-0.152c-2.525,-1.781 -5.119,-3.426 -8.367,-2.6c-0.792,0.201 -1.827,1.198 -1.956,1.963c-0.657,3.887 -0.398,7.694 2.194,10.958c1.029,1.294 2.259,2.437 3.201,3.786c0.381,0.547 0.237,1.461 0.332,2.208c-0.962,-0.029 -1.946,0.053 -2.876,-0.134c-0.471,-0.094 -0.839,-0.681 -1.265,-1.031c-1.087,-0.891 -1.09,-0.888 -4.444,0.119c-2.831,0.85 -8.324,-1.444 -9.521,-4.215c-0.605,-1.403 -1.347,-3.39 -0.797,-4.506c0.918,-1.864 2.696,-0.619 4.261,-0.069c2.566,0.902 4.212,-0.215 4.34,-2.752c0.052,-1.029 -0.289,-2.095 -0.542,-3.121c-1.094,-4.422 -2.231,-8.833 -3.332,-13.253c-1.185,-4.747 1.541,-8.53 3.388,-12.402c1.142,-2.392 2.955,-4.844 6.437,-4.051l-0.251,-0.284Z" style="fill:#e9e9e9;fill-rule:nonzero;"/><path d="M424.372,226.071c-3.023,-0.547 -5.394,-1.103 -7.795,-1.356c-1.216,-0.129 -2.485,0.386 -3.737,0.442c-9.512,0.429 -18.304,4.829 -27.719,5.296c-7.662,0.38 -15.392,-0.771 -23.076,-0.589c-2.631,0.062 -4.774,-0.009 -6.721,-1.676c-1.123,-0.962 -3.449,-1.212 -2.549,-3.422c0.126,-0.309 2.435,0.612 3.521,0.275c1.757,-0.545 3.556,-1.403 4.951,-2.584c4.015,-3.405 7.847,-4.341 12.6,-1.093c4.082,2.79 8.888,2.54 13.822,2.83c6.478,0.381 12.013,-0.193 17.542,-3.545c1.973,-1.195 4.721,-1.363 7.144,-1.507c5.224,-0.308 10.469,-0.454 15.699,-0.342c2.083,0.044 4.296,0.642 6.172,1.556c1.389,0.677 1.468,2.77 -0.046,3.295c-3.304,1.147 -6.808,1.715 -9.808,2.42" style="fill:#e9e9e9;fill-rule:nonzero;"/><path d="M344.273,230.399c-2.073,0 -3.316,0.353 -3.661,-0.055c-3.287,-3.887 -6.349,-0.972 -9.197,0.399c-5.978,2.877 -11.614,4.235 -17.11,-1.027c-0.552,-0.528 -2.351,0.239 -3.57,0.418c-2.859,0.42 -5.666,2.535 -8.592,0.385c-0.554,-0.406 -0.779,-1.261 -1.155,-1.909c4.243,-0.927 2.251,-5.609 4.619,-7.669c2.66,-2.313 6.165,-2.666 7.91,0.21c1.963,3.233 3.523,2.686 6.549,1.907c3.649,-0.939 5.39,-5.65 9.986,-4.389c3.649,1 7.469,1.356 11.158,2.229c2.091,0.495 4.246,1.177 6.041,2.303c1.197,0.752 2.698,2.642 2.461,3.648c-0.304,1.297 -2.092,2.412 -3.464,3.233c-0.859,0.512 -2.128,0.337 -1.975,0.317" style="fill:#e9e9e9;fill-rule:nonzero;"/><path d="M485.372,140.978c2.064,1.243 4.453,-2.57 6.444,0.111c2.378,3.201 4.263,-1.139 6.637,-0.172c6.315,2.576 13.885,3.048 16.925,10.754c0.3,0.759 0.942,1.533 0.878,2.25c-0.092,1.016 -0.525,2.12 -1.155,2.915c-0.272,0.343 -1.503,0.228 -2.124,-0.059c-2.723,-1.257 -5.354,-2.713 -8.071,-3.985c-3.248,-1.52 -6.085,-4.502 -10.378,-1.946c-1.087,0.647 -3.723,-0.513 -5.205,-1.503c-2.359,-1.577 -2.866,-0.379 -2.774,1.508c0.118,2.431 -0.567,3.35 -3.181,3.4c-2.337,0.045 -4.701,0.835 -6.967,1.565c-1.198,0.386 -2.391,1.923 -3.331,0.088c-0.494,-0.965 -0.492,-2.52 -0.078,-3.553c1.388,-3.462 0.409,-4.393 -3.045,-3.38c-0.298,0.088 -1.182,-0.61 -1.14,-0.803c0.151,-0.704 0.414,-1.706 0.934,-1.946c1.437,-0.663 3.739,-0.52 4.428,-1.548c2.848,-4.254 6.985,-3.744 11.203,-3.696" style="fill:#e9e9e9;fill-rule:nonzero;"/><path d="M410.589,253.976c-0.439,-1.815 -4.835,-3.987 0.488,-5.319c0.337,-0.084 0.832,-0.941 0.718,-1.216c-1.684,-4.071 1.569,-5.858 3.732,-8.075c4.155,-4.26 9.667,-6.117 15.068,-8.046c1.011,-0.362 2.814,0.122 3.582,0.887c0.613,0.613 0.522,2.338 0.205,3.41c-2.053,6.936 -6.832,11.545 -14.213,15.115c-3.198,1.548 -5.959,3.885 -9.827,2.991l0.247,0.253Z" style="fill:#e9e9e9;fill-rule:nonzero;"/><path d="M356.096,237.086c2.957,-1.743 5.859,-0.109 8.619,3.148c1.348,1.591 3.585,2.403 5.316,3.705c1.898,1.427 3.039,3.269 1.712,5.659c-1.188,2.142 -3.245,3.119 -5.55,2.615c-1.804,-0.395 -3.878,-1.098 -5.087,-2.371c-3.623,-3.817 -8.125,-5.216 -13.07,-6.052c-0.948,-0.16 -2.302,-1.686 -2.319,-2.602c-0.019,-1.083 1.015,-2.884 1.939,-3.145c2.309,-0.651 4.813,-0.606 8.44,-0.957" style="fill:#e9e9e9;fill-rule:nonzero;"/><path d="M571.537,188.462c0.08,0.403 0.474,1.956 0.671,3.533c0.189,1.515 0.586,3.178 0.173,4.562c-1.213,4.07 -2.997,5.674 -3.899,4.639c-2.839,-3.259 -3.169,1.508 -5.067,1.179c-1.662,-0.288 -3.6,-1.992 -3.258,-3.93c0.927,-5.251 1.785,-10.53 3.108,-15.686c0.395,-1.543 2.154,-2.797 3.45,-4.01c0.356,-0.333 1.517,-0.32 1.933,0.01c2.735,2.168 3.292,3.927 2.889,9.703" style="fill:#e9e9e9;fill-rule:nonzero;"/><path d="M456.412,144.365c0.826,-0.002 1.667,-0.104 2.476,0.015c4.267,0.628 7.204,4.419 6.283,8.044c-0.779,3.065 -6.006,5.778 -9.375,4.698c-1.547,-0.496 -3.017,-1.323 -4.412,-2.176c-2.69,-1.643 -5.19,-3.968 -4.277,-7.213c0.81,-2.882 4.092,-3.126 6.827,-3.355c0.821,-0.069 1.652,-0.011 2.478,-0.013" style="fill:#e9e9e9;fill-rule:nonzero;"/><path d="M454.998,127.041c-1.439,0.372 -2.363,0.744 -3.313,0.832c-3.364,0.311 -5.021,1.516 -3.321,5.169c0.316,0.679 -0.402,1.839 -0.642,2.777c-0.628,-0.504 -1.703,-0.925 -1.812,-1.525c-0.848,-4.62 -4.104,-5.307 -7.939,-5.053c-3.513,0.232 -7.015,0.623 -10.528,0.862c-1.174,0.08 -2.365,-0.091 -3.549,-0.147c0.348,-1.75 0.126,-4.403 1.164,-5.055c1.944,-1.22 4.704,-1.984 6.968,-1.698c7.491,0.946 14.91,2.445 22.972,3.838" style="fill:#e9e9e9;fill-rule:nonzero;"/><path d="M514.176,223.347c3.631,-3.337 4.426,-7.436 3.454,-12.068c-0.133,-0.634 -0.363,-1.786 -0.183,-1.867c4.144,-1.823 7.576,-5.392 12.523,-5.244c0.521,0.016 1.118,0.176 1.531,0.476c0.411,0.299 0.785,0.825 0.887,1.312c0.072,0.342 -0.351,1.139 -0.532,1.133c-4.367,-0.145 -4.872,3.041 -6.138,6.213c-1.97,4.936 -5.819,8.417 -11.542,10.045" style="fill:#e9e9e9;fill-rule:nonzero;"/><path d="M189.036,146.257c-0.062,0.032 -0.974,0.832 -1.947,0.913c-0.699,0.058 -1.89,-0.679 -2.154,-1.342c-1.713,-4.309 -1.346,-5.321 2.558,-7.785c1.132,-0.714 2.604,-1.954 3.548,-1.679c1.898,0.554 4.062,1.612 5.157,3.147c1.374,1.928 0.062,6.622 -1.79,7.276c-1.262,0.445 -2.922,-0.237 -5.372,-0.53" style="fill:#e9e9e9;fill-rule:nonzero;"/><path d="M514.326,99.556c0.498,0.111 2.722,0.273 4.627,1.136c1.568,0.711 3.81,2.174 3.908,3.445c0.224,2.906 -2.584,1.793 -4.274,2.054c-0.803,0.124 -1.617,0.177 -2.413,0.332c-1.989,0.386 -3.046,4.004 -5.377,2.192c-1.408,-1.095 -1.214,-3.556 -3.39,-4.917c-2.063,-1.29 -0.685,-4.018 1.981,-4.228c1.084,-0.085 2.182,-0.014 4.938,-0.014" style="fill:#e9e9e9;fill-rule:nonzero;"/><path d="M64.127,112.046c1.725,1.312 3.342,1.906 3.733,2.956c1.418,3.801 2.449,7.748 3.501,11.673c0.047,0.175 -1.216,1.074 -1.726,0.965c-3.663,-0.781 -9.001,-7.362 -8.55,-11.005c0.186,-1.507 1.825,-2.835 3.042,-4.589" style="fill:#e9e9e9;fill-rule:nonzero;"/><path d="M458.616,212.361c-0.555,4.135 -3.837,6.227 -7.43,5.505c-1.586,-0.318 -3.225,-0.418 -4.846,-0.486c-1.372,-0.058 -2.751,0.073 -4.127,0.12c0.866,-1.636 1.383,-4.266 2.667,-4.717c3.528,-1.241 7.362,-1.723 11.115,-2.146c0.876,-0.098 1.911,1.229 2.621,1.724" style="fill:#e9e9e9;fill-rule:nonzero;"/><path d="M45.635,77.664c4.473,0.561 6.473,4.26 8.495,7.197c0.902,1.311 -0.635,4.476 -1.403,6.682c-0.346,0.996 -1.408,1.436 -2.365,0.068c-2.336,-3.343 -4.85,-6.562 -7.141,-9.935c-0.503,-0.74 -0.83,-2.245 -0.423,-2.796c0.534,-0.722 1.876,-0.847 2.837,-1.216" style="fill:#e9e9e9;fill-rule:nonzero;"/><path d="M585.505,122.211c4.768,1.07 9.541,2.117 14.292,3.255c0.396,0.095 0.825,0.78 0.894,1.242c0.04,0.271 -0.547,0.794 -0.95,0.947c-6.717,2.565 -12.776,0.356 -18.689,-2.693c-0.427,-0.22 -0.776,-0.826 -0.883,-1.314c-0.042,-0.188 0.676,-0.76 1.074,-0.79c1.372,-0.1 2.756,-0.038 4.135,-0.038c0.043,-0.203 0.085,-0.406 0.127,-0.609" style="fill:#e9e9e9;fill-rule:nonzero;"/><path d="M580.414,109.511c5.023,-0.366 8.269,1.542 11.037,4.34c0.718,0.725 3.36,0.45 1.882,2.452c-0.929,1.259 -1.493,3.217 -4.366,2.355c-3.775,-1.131 -5.635,-4.472 -8.806,-6.175c-0.672,-0.361 -0.815,-1.705 -1.203,-2.597c0.765,-0.197 1.528,-0.394 1.456,-0.375" style="fill:#e9e9e9;fill-rule:nonzero;"/><path d="M476.921,68.157c0.074,-4.222 4.259,-4.308 6.509,-6.328c0.197,-0.177 1.496,0.475 1.926,1.023c1.765,2.25 1.141,6.56 -1.456,7.942c-1.905,1.014 -4.257,1.414 -5.507,-1.474c-0.267,-0.616 -1.133,-0.972 -1.723,-1.447l0.251,0.284Z" style="fill:#e9e9e9;fill-rule:nonzero;"/><path d="M475.423,126.191c-2.063,-0.341 -3.698,-0.468 -5.25,-0.9c-2.899,-0.806 -3.817,-2.432 -3.388,-5.409c0.324,-2.241 1.972,-2.721 3.541,-2.014c2.185,0.985 4.172,2.465 6.109,3.914c0.776,0.581 1.851,2.131 1.653,2.399c-0.676,0.913 -1.857,1.453 -2.665,2.01" style="fill:#e9e9e9;fill-rule:nonzero;"/><path d="M35.151,65.525c-0.644,0.537 -1.386,1.644 -2.244,1.741c-0.933,0.106 -2.142,-0.521 -2.934,-1.184c-2.388,-2.001 -5.665,-3.332 -5.917,-7.084c-0.016,-0.249 0.814,-0.767 1.278,-0.803c3.174,-0.245 8.784,3.361 9.741,6.196c0.084,0.247 0.041,0.537 0.076,1.134" style="fill:#e9e9e9;fill-rule:nonzero;"/><path d="M542.666,186.804c-1.001,-0.31 -2.619,1.285 -2.906,-1.086c-0.27,-2.22 -0.203,-4.393 2.16,-5.564c0.148,-0.074 0.893,0.794 1.177,1.323c0.371,0.691 0.558,1.48 0.824,2.227c0.302,-0.652 0.558,-1.332 0.915,-1.953c0.785,-1.364 1.544,-2.76 2.51,-3.989c0.168,-0.215 1.794,0.181 1.9,0.543c0.533,1.815 -2.711,8.447 -4.342,8.917c-0.652,0.187 -1.487,-0.26 -2.238,-0.418" style="fill:#e9e9e9;fill-rule:nonzero;"/><path d="M507.36,123.924c1.312,0.959 2.827,1.656 3.581,2.839c0.268,0.419 -1.121,2.271 -2.096,3.032c-2.351,1.835 -7.125,0.887 -8.507,-1.621c-0.222,-0.403 0.234,-1.664 0.678,-1.867c1.939,-0.885 3.989,-1.527 6.344,-2.383" style="fill:#e9e9e9;fill-rule:nonzero;"/><path d="M88.19,143.964c-0.739,1.295 -1.278,2.238 -1.816,3.181c-0.802,-0.58 -1.719,-1.057 -2.371,-1.774c-0.524,-0.576 -0.774,-1.426 -1.066,-2.185c-0.949,-2.466 -3.45,-4.451 -2.383,-7.524c0.076,-0.221 0.896,-0.467 1.095,-0.322c3.113,2.265 5.484,5.079 6.541,8.624" style="fill:#e9e9e9;fill-rule:nonzero;"/><path d="M370.51,189.562c-0.693,2.388 -1.352,4.695 -2.082,6.98c-0.02,0.062 -0.957,0.03 -1.228,-0.219c-2.362,-2.175 -1.068,-4.452 -0.167,-6.756c0.291,-0.746 0.08,-1.713 0.44,-2.4c0.263,-0.501 1.058,-0.883 1.669,-0.979c0.312,-0.049 0.939,0.584 1.076,1.019c0.24,0.767 0.215,1.619 0.292,2.355" style="fill:#e9e9e9;fill-rule:nonzero;"/><path d="M294.126,199.103c3.605,-0.056 5.935,1.724 7.934,4.053c0.274,0.319 0.29,1.061 0.12,1.485c-0.096,0.241 -0.885,0.436 -1.237,0.309c-2.535,-0.917 -5.054,-1.884 -7.531,-2.945c-0.326,-0.139 -0.647,-1.01 -0.507,-1.355c0.252,-0.625 0.854,-1.11 1.221,-1.547" style="fill:#e9e9e9;fill-rule:nonzero;"/><path d="M62.123,106.11c-0.295,0.276 -1.003,0.937 -1.711,1.598c-0.589,-0.698 -1.204,-1.377 -1.751,-2.106c-0.141,-0.187 -0.073,-0.532 -0.101,-0.805l-0.528,-5.231c0.527,0.089 1.132,0.042 1.567,0.291c2.135,1.223 2.939,3.131 2.524,6.253" style="fill:#e9e9e9;fill-rule:nonzero;"/><path d="M474.64,222.226c-1.638,-1.001 -4.298,0.473 -5.673,-1.91c1.948,-0.505 3.881,-1.09 5.853,-1.473c0.747,-0.145 1.722,-0.043 2.338,0.349c0.543,0.346 0.87,1.222 1.011,1.922c0.06,0.296 -0.546,0.972 -0.943,1.062c-0.766,0.172 -1.598,0.05 -2.586,0.05" style="fill:#e9e9e9;fill-rule:nonzero;"/><path d="M75.59,127.868c2.124,0.636 3.688,3.726 2.774,5.667c-0.157,0.333 -0.903,0.637 -1.306,0.563c-1.836,-0.335 -3.601,-3.909 -2.76,-5.595c0.171,-0.342 0.848,-0.431 1.292,-0.635" style="fill:#e9e9e9;fill-rule:nonzero;"/><path d="M391.803,179.019c-1.087,0.389 -2.213,1.201 -3.096,0.99c-0.844,-0.201 -1.946,-1.427 -2.007,-2.27c-0.072,-1.008 0.681,-2.232 1.424,-3.046c0.224,-0.246 1.865,0.34 2.387,0.948c0.631,0.734 0.764,1.897 1.292,3.378" style="fill:#e9e9e9;fill-rule:nonzero;"/><path d="M502.65,216.106c-1.517,1.349 -2.381,2.717 -3.221,2.702c-0.912,-0.016 -2.242,-1.152 -2.598,-2.098c-0.525,-1.395 0.298,-2.769 2.003,-2.553c1.071,0.135 2.049,1.009 3.816,1.949" style="fill:#e9e9e9;fill-rule:nonzero;"/><path d="M67.522,98.437c-1.252,0.937 -2.454,2.244 -2.831,2.039c-1.047,-0.571 -2.29,-1.709 -2.41,-2.744c-0.083,-0.717 1.567,-1.635 2.443,-2.463c0.842,0.954 1.685,1.907 2.798,3.168" style="fill:#e9e9e9;fill-rule:nonzero;"/><path d="M113.834,178.559c-1.881,0.273 -3.024,0.799 -3.78,0.461c-1.081,-0.483 -1.88,-1.599 -2.799,-2.445c0.971,-0.254 2.065,-0.913 2.882,-0.663c1.103,0.336 1.993,1.371 3.697,2.647" style="fill:#e9e9e9;fill-rule:nonzero;"/><path d="M486.881,204.985c-1.35,0.858 -2.314,1.615 -3.407,2.056c-0.242,0.096 -1.442,-1.185 -1.336,-1.391c0.552,-1.08 1.381,-2.019 2.113,-3.009c0.758,0.676 1.516,1.352 2.63,2.344" style="fill:#e9e9e9;fill-rule:nonzero;"/><path d="M575.322,115.784c-1.371,0.855 -2.271,1.854 -2.905,1.706c-0.863,-0.201 -1.972,-1.193 -2.122,-2.005c-0.12,-0.645 1.038,-1.528 1.629,-2.305c0.935,0.716 1.87,1.433 3.398,2.604" style="fill:#e9e9e9;fill-rule:nonzero;"/></g></g></svg>