<svg width="304" height="516" viewBox="0 0 304 516" fill="none" xmlns="http://www.w3.org/2000/svg">
<path d="M285.158 -39C324.909 -39 337.332 -36.7916 352.238 -13.6035C367.421 9.58457 408 72.2476 408 72.2476H306.414C288.747 72.2476 271.356 64.5183 263.903 51.544L204 -39H285.158Z" fill="#ADCFE7" fill-opacity="0.15"/>
<path d="M285.158 253C324.909 253 337.332 255.208 352.238 278.396C367.421 301.585 408 364.248 408 364.248H306.414C288.747 364.248 271.356 356.518 263.903 343.544L204 253H285.158Z" fill="#ADCFE7" fill-opacity="0.15"/>
<path d="M103.158 404C142.909 404 155.332 406.208 170.238 429.396C185.421 452.585 226 515.248 226 515.248H124.414C106.747 515.248 89.3559 507.518 81.9026 494.544L22 404H103.158Z" fill="#ADCFE7" fill-opacity="0.15"/>
<path d="M326.842 123C287.091 123 274.668 124.932 259.762 148.396C244.579 171.585 204 233.972 204 233.972H305.586C323.253 233.972 340.644 226.242 347.821 213.268L408 123H326.842Z" fill="#ADCFE7" fill-opacity="0.15"/>
<path d="M122.842 -38C83.0907 -38 70.6685 -36.0677 55.7618 -12.6035C40.5792 10.5846 0 72.9716 0 72.9716H101.586C119.253 72.9716 136.644 65.2422 143.821 52.2679L204 -38H122.842Z" fill="#ADCFE7" fill-opacity="0.15"/>
<path d="M13 383.983C13 383.983 74.1764 286.753 84.1488 270.643C94.1211 254.342 102.751 253 130.175 253H190.968C187.324 255.877 181.187 262.205 176.585 269.493L114.833 368.832C108.696 379.955 95.6553 383.983 79.9297 383.983H13Z" fill="#ADCFE7" fill-opacity="0.15"/>
</svg>
